<?xml version="1.0" standalone="no"?>
<!DOCTYPE svg PUBLIC "-//W3C//DTD SVG 20010904//EN"
 "http://www.w3.org/TR/2001/REC-SVG-20010904/DTD/svg10.dtd">
<svg version="1.0" xmlns="http://www.w3.org/2000/svg"
 width="446.000000pt" height="446.000000pt" viewBox="0 0 446.000000 446.000000"
 preserveAspectRatio="xMidYMid meet">
<metadata>
Created by potrace 1.14, written by Peter Selinger 2001-2017
</metadata>
<g transform="translate(0.000000,446.000000) scale(0.100000,-0.100000)"
fill="#000000" stroke="none">
<path d="M2015 4406 c-38 -29 -94 -79 -123 -110 -46 -48 -56 -55 -73 -45 -29
15 -203 70 -274 86 -11 2 -31 6 -44 9 -14 3 -28 7 -31 9 -4 2 -22 7 -41 10
-19 3 -47 8 -64 12 -16 3 -39 7 -50 9 -19 2 -71 11 -122 19 -64 10 -191 19
-292 19 -104 1 -115 -1 -127 -20 -13 -19 -10 -26 42 -85 97 -112 170 -252 147
-287 -13 -21 -30 -20 -118 12 -38 14 -83 27 -100 31 -35 6 -213 8 -223 1 -4
-2 -28 -7 -52 -11 -107 -15 -342 -101 -386 -142 -36 -34 -20 -53 88 -107 161
-79 244 -127 408 -235 131 -86 226 -177 327 -312 62 -82 196 -287 216 -329 4
-8 23 -42 42 -75 61 -104 115 -214 107 -218 -4 -3 -58 -26 -121 -52 -529 -217
-859 -431 -961 -623 -52 -99 -22 -229 76 -325 88 -87 286 -163 479 -184 148
-17 524 -7 680 17 33 5 62 6 66 2 3 -4 11 -45 18 -92 10 -70 30 -180 46 -250
45 -197 139 -422 238 -570 127 -189 315 -354 504 -442 510 -239 1189 -118
1563 279 132 140 196 247 259 429 48 141 69 368 46 513 -33 218 -96 390 -197
541 -20 30 -69 90 -108 132 l-71 77 30 48 c27 45 71 158 71 184 0 6 46 57 103
113 273 269 401 548 401 876 0 160 -22 284 -76 417 l-21 52 -36 -18 c-122 -62
-443 -167 -611 -200 -100 -20 -220 -34 -220 -26 0 2 6 10 13 17 40 40 210 244
258 308 118 159 190 310 158 331 -43 28 -210 74 -289 79 -60 5 -66 1 -102 -67
-103 -192 -136 -245 -141 -227 -3 11 -11 38 -17 62 -6 23 -14 42 -18 42 -4 -1
-27 -21 -52 -45 -24 -24 -45 -43 -46 -42 -1 1 -5 34 -9 72 -3 39 -7 79 -10 90
-2 11 -4 37 -4 58 -1 47 -5 47 -186 6 -162 -36 -358 -100 -517 -167 l-115 -48
-12 42 c-32 107 -142 292 -218 366 l-38 37 -70 -53z"/>
</g>
</svg>
