<svg xmlns="http://www.w3.org/2000/svg" width="128" height="128" viewBox="0 0 128 128" version="1.1">
	<path d="M 53.513 2.442 C 49.462 3.951, 46.653 6.630, 47.569 8.111 C 47.846 8.560, 47.112 9.888, 45.938 11.062 C 44.297 12.703, 43.944 13.928, 44.413 16.349 C 44.750 18.082, 45.246 20.831, 45.517 22.457 C 45.788 24.084, 47.326 26.784, 48.935 28.457 C 51.977 31.620, 54.025 37, 52.188 37 C 51.622 37, 50.881 38.237, 50.542 39.750 C 50.202 41.263, 49.052 43.625, 47.985 45 C 46.369 47.082, 46.041 47.199, 46.022 45.700 C 45.982 42.428, 43.141 38.301, 40.047 37.020 C 37.437 35.938, 37 35.233, 37 32.101 C 37 26.928, 30.858 18.587, 24.657 15.341 C 21.301 13.584, 20.429 14.065, 21.919 16.849 C 23.657 20.096, 23.169 26.747, 20.860 31.290 C 19.683 33.605, 16.509 37.925, 13.806 40.890 C 7.145 48.196, 3.850 54.999, 3.229 62.731 C 2.781 68.314, 3.075 69.709, 5.905 75.459 C 11.118 86.048, 20.336 92.080, 31.566 92.250 L 36.070 92.318 33.303 95.206 L 30.535 98.094 33.498 103.753 C 37.943 112.243, 45.975 119.612, 55.846 124.258 L 64.192 128.186 71.601 124.956 C 80.956 120.877, 90.236 112.545, 94.816 104.113 L 98.131 98.007 94.909 95.064 L 91.687 92.121 95.679 92.176 C 104.551 92.299, 111.679 89.312, 117.262 83.132 C 124.113 75.549, 126.368 68.903, 124.981 60.381 C 123.789 53.056, 121.688 49.023, 115.387 41.962 C 106.418 31.910, 103.594 24.301, 106.368 17.662 C 108.153 13.390, 107.836 13.276, 102.525 16.285 C 97.362 19.208, 91 28.224, 91 32.616 C 91 35.206, 90.425 36.164, 88.250 37.195 C 86.737 37.913, 84.576 40.328, 83.447 42.562 L 81.394 46.624 79.697 44.374 C 78.764 43.136, 78 40.971, 78 39.562 C 78 38.153, 77.550 37, 77 37 C 74.706 37, 76.169 31.898, 79.385 28.682 C 82.233 25.834, 82.883 24.314, 83.489 19.093 C 84.054 14.228, 83.885 12.523, 82.708 11.194 C 81.882 10.262, 81.048 8.648, 80.853 7.606 C 80.659 6.564, 79.308 4.823, 77.851 3.736 C 74.267 1.063, 59.346 0.269, 53.513 2.442 M 54.060 4.700 C 47.191 8.293, 48.802 9, 63.858 9 C 71.571 9, 78.130 8.599, 78.432 8.109 C 78.735 7.620, 77.749 6.390, 76.241 5.377 C 72.214 2.672, 58.724 2.261, 54.060 4.700 M 57.098 11.382 C 55.531 13.270, 56.371 16.099, 59.658 20.005 C 62.709 23.631, 64.871 23.776, 68.314 20.585 C 72.941 16.297, 73.246 9.034, 68.738 10.502 C 65.935 11.415, 63.102 11.430, 60.430 10.546 C 59.103 10.107, 57.907 10.407, 57.098 11.382 M 48.625 12.518 C 47.731 13.412, 47 14.686, 47 15.349 C 47 17.274, 49.981 21, 51.522 21 C 53.467 21, 55.186 17.448, 54.812 14.201 C 54.438 10.965, 51.089 10.054, 48.625 12.518 M 74.709 11.624 C 74.319 12.014, 74 13.778, 74 15.544 C 74 19.079, 76.148 21.541, 78.457 20.655 C 80.403 19.908, 81.566 15.124, 80.295 13.095 C 79.212 11.366, 75.852 10.481, 74.709 11.624 M 54.651 20.468 C 54.003 22.156, 54.393 22.458, 58.500 23.443 L 61.500 24.163 59.076 21.581 C 56.297 18.622, 55.442 18.407, 54.651 20.468 M 70.149 21.341 L 67.973 23.658 70.999 23.213 C 74.580 22.688, 75.479 21.642, 73.652 20.126 C 72.646 19.291, 71.799 19.585, 70.149 21.341 M 27.195 24.430 C 27.013 29.263, 25.274 32.170, 17.041 41.405 C 9.186 50.216, 7.520 54.138, 7.616 63.601 C 7.722 74.135, 13.047 81.919, 23.677 87.080 C 25.974 88.195, 29.349 89.196, 31.177 89.304 C 34.252 89.485, 34.476 89.294, 34.178 86.750 C 33.922 84.560, 34.264 84, 35.856 84 C 39.622 84, 43.803 91.768, 40.977 93.514 C 39.413 94.481, 43.890 101.722, 48.644 105.913 C 50.924 107.922, 55.373 110.874, 58.533 112.472 L 64.277 115.378 70.621 112.089 C 81.375 106.513, 88.940 97.672, 87.112 92.815 C 86.028 89.936, 88.136 85.409, 90.980 84.506 C 93.692 83.646, 95.157 84.732, 94.798 87.339 C 94.546 89.170, 94.948 89.466, 97.433 89.278 C 101.802 88.947, 110.619 84.293, 114.554 80.241 C 118.468 76.211, 121 69.045, 121 61.997 C 121 54.232, 118.474 48.839, 110.996 40.636 C 103.251 32.140, 101.882 29.990, 101.037 25 L 100.444 21.500 97.722 25.482 C 95.803 28.290, 95 30.728, 95 33.748 C 95 37.652, 94.692 38.179, 91.534 39.685 C 89.547 40.633, 87.413 42.718, 86.534 44.570 C 84.421 49.022, 84.534 49.190, 88.394 47.349 C 92.817 45.240, 96.538 46.205, 98.482 49.965 C 100.540 53.945, 100.392 56.232, 97.869 59.440 C 94.788 63.356, 91.510 64.322, 85.882 62.972 C 80.113 61.588, 77.997 59.399, 77.284 54.078 C 76.983 51.835, 76.520 50, 76.254 50 C 75.989 50, 74.024 50.983, 71.886 52.184 C 68.365 54.163, 68 54.750, 68.004 58.434 C 68.009 63.627, 70.788 68.170, 76.121 71.699 C 79.526 73.952, 81.693 74.547, 87.581 74.844 C 94.037 75.170, 95.416 74.899, 100.013 72.396 C 102.857 70.849, 106.041 68.493, 107.088 67.161 C 112.397 60.411, 111.611 47.586, 105.663 43.911 C 102.710 42.086, 101.203 42.032, 96.343 43.577 C 94.642 44.118, 94.649 44.042, 96.441 42.582 C 97.509 41.712, 99.148 41, 100.083 41 C 101.650 41, 101.635 40.708, 99.892 37.289 C 98.851 35.247, 98.029 32.660, 98.063 31.539 C 98.118 29.767, 98.256 29.827, 99.114 32 C 99.657 33.375, 102.083 36.525, 104.504 39 C 109.711 44.321, 112 49.304, 112 55.319 C 112 64.508, 108.079 70.561, 99.500 74.617 C 86.669 80.683, 71.551 74.915, 66.375 61.979 C 64.480 57.244, 63.389 56.951, 62.513 60.942 C 61.383 66.084, 56.284 71.959, 50.690 74.564 C 40.421 79.345, 26.633 76.630, 20.527 68.625 C 13.974 60.032, 15.748 44.876, 23.995 39.004 C 25.667 37.813, 27.926 35.188, 29.016 33.170 C 30.928 29.629, 30.976 29.606, 30.380 32.500 C 30.040 34.150, 29.105 36.552, 28.301 37.837 C 27.498 39.122, 26.989 40.282, 27.170 40.414 C 27.352 40.547, 28.977 41.243, 30.782 41.962 C 34.828 43.573, 34.454 44.403, 30.330 42.965 C 21.147 39.764, 14.398 53.378, 19.678 64.451 C 22.587 70.550, 31.147 75.141, 39.611 75.142 C 48.436 75.143, 56.625 70.290, 59.623 63.282 C 62.031 57.655, 61.442 55.304, 56.906 52.440 C 54.654 51.019, 52.730 50.001, 52.631 50.178 C 52.532 50.355, 51.787 52.484, 50.976 54.909 C 49.019 60.757, 45.639 63.147, 39.051 63.344 C 34.474 63.481, 33.534 63.155, 31.416 60.694 C 28.159 56.912, 28.176 51.733, 31.455 48.455 C 34.261 45.648, 36.344 45.409, 40.250 47.447 C 42.764 48.758, 43 48.727, 43 47.076 C 43 44.507, 39.567 40.477, 36.184 39.076 C 33.903 38.131, 33.395 37.387, 33.752 35.516 C 34.341 32.438, 32.523 27.226, 29.629 23.690 L 27.329 20.879 27.195 24.430 M 49.171 24.098 C 50.702 28.996, 66.981 30.872, 75.448 27.126 C 81.140 24.608, 81.648 22.399, 76.250 23.639 C 71.444 24.743, 56.514 24.698, 52.116 23.567 C 49.402 22.869, 48.819 22.974, 49.171 24.098 M 55.431 33.500 C 56.881 37.570, 57.647 37.969, 64 37.969 C 70.436 37.969, 71.327 37.512, 72.697 33.500 L 73.722 30.500 64.042 30.500 L 54.362 30.500 55.431 33.500 M 54 40.492 C 54 42.366, 58.650 44, 63.982 44 C 69.758 44, 74 42.593, 74 40.677 C 74 39.605, 71.810 39.304, 64 39.304 C 56.948 39.304, 54 39.654, 54 40.492 M 52.038 45.455 C 50.504 47.302, 50.433 47.205, 55 49.521 C 56.925 50.498, 59.902 52.362, 61.615 53.664 C 64.378 55.764, 64.873 55.858, 66.004 54.495 C 66.706 53.650, 69.466 51.730, 72.139 50.229 C 77.390 47.280, 77.701 46.827, 75.648 45.123 C 74.650 44.295, 73.456 44.294, 71.088 45.119 C 68.003 46.194, 59.746 45.875, 55.430 44.514 C 54.107 44.096, 52.883 44.436, 52.038 45.455 M 46.441 51.464 C 45.509 56.430, 43.424 57.869, 42.664 54.070 C 41.356 47.529, 33 47.748, 33 54.324 C 33 60.854, 40.206 63.319, 45.354 58.548 C 47.376 56.674, 48 55.140, 48 52.048 C 48 47.085, 47.311 46.827, 46.441 51.464 M 80.719 49.332 C 78.625 54.668, 83.058 61, 88.888 61 C 95.083 61, 98.320 53.566, 93.500 50.408 C 91.184 48.891, 90.816 48.891, 88.500 50.408 C 86.947 51.426, 86 52.984, 86 54.523 C 86 57.150, 84.619 57.811, 83.366 55.784 C 82.953 55.115, 82.350 52.978, 82.026 51.034 C 81.568 48.282, 81.279 47.905, 80.719 49.332 M 61.502 69.996 C 59.573 74.273, 54.072 80.573, 50.023 83.142 L 47.546 84.713 50.023 88.384 C 51.531 90.618, 54.560 93.070, 57.766 94.652 C 62.699 97.086, 63.325 97.169, 67.650 95.958 C 72.464 94.610, 80 88.452, 80 85.867 C 80 85.073, 77.958 82.717, 75.463 80.631 C 72.968 78.545, 69.550 74.400, 67.868 71.419 C 66.185 68.439, 64.470 66, 64.056 66 C 63.642 66, 62.493 67.798, 61.502 69.996 M 61.193 74.334 C 59.503 76.625, 57.214 79.657, 56.107 81.071 C 53.463 84.448, 54.322 87.450, 58.500 89.433 C 62.642 91.399, 66.281 91.423, 69.979 89.511 C 73.638 87.619, 74.651 84.576, 72.580 81.701 C 71.708 80.490, 69.480 77.400, 67.630 74.834 L 64.266 70.168 61.193 74.334 M 51.117 87 C 51.943 88.375, 55.185 90.796, 58.322 92.381 C 63.968 95.233, 64.069 95.245, 68.343 93.613 C 72.806 91.909, 78.870 86.536, 77.677 85.344 C 77.305 84.971, 77 85.202, 77 85.855 C 77 87.676, 67.961 93, 64.869 93 C 60.787 93, 56.909 91.256, 53.058 87.689 C 50.048 84.901, 49.804 84.815, 51.117 87 M 37.333 90.500 C 37.333 91.325, 37.708 92, 38.167 92 C 38.625 92, 39 91.325, 39 90.500 C 39 89.675, 38.625 89, 38.167 89 C 37.708 89, 37.333 89.675, 37.333 90.500 M 89.543 89.931 C 89.226 90.443, 89.425 91.144, 89.984 91.490 C 90.543 91.835, 91 91.416, 91 90.559 C 91 88.802, 90.400 88.544, 89.543 89.931 M 35.952 96.558 C 32.860 100.284, 44.289 115.075, 53.774 119.623 C 64.819 124.919, 74.560 122.446, 84.642 111.785 C 91.497 104.537, 94.294 99.122, 92.470 96.628 C 91.157 94.832, 89 95.143, 89 97.129 C 89 100.019, 82.125 107.606, 75.797 111.700 C 66.205 117.905, 63.123 118.149, 55.301 113.324 C 47.185 108.317, 43.738 105.115, 40.484 99.562 C 39.013 97.053, 37.683 95, 37.527 95 C 37.372 95, 36.663 95.701, 35.952 96.558" stroke="none" fill="black" fill-rule="evenodd"/>
</svg>